<?xml version="1.0" standalone="no"?><!DOCTYPE svg PUBLIC "-//W3C//DTD SVG 1.1//EN" "http://www.w3.org/Graphics/SVG/1.1/DTD/svg11.dtd"><svg t="1677494081723" class="icon" viewBox="0 0 1024 1024" version="1.1" xmlns="http://www.w3.org/2000/svg" p-id="3804" xmlns:xlink="http://www.w3.org/1999/xlink" width="200" height="200"><path d="M532.48 238.08l256 256-85.333333 85.333333-85.333334-85.333333-85.333333-85.333333-85.333333-85.333334 85.333333-85.333333z m-426.666667 597.333333l85.333334 85.333334h-85.333334v-85.333334z" p-id="3805"></path><path d="M361.8304 937.813333h-256a17.066667 17.066667 0 0 1-17.066667-17.066666v-84.5824a22.033067 22.033067 0 0 1 0-1.501867v-169.147733L88.746667 664.746667c0-4.932267 2.0992-9.403733 5.461333-12.509867L434.6368 311.808l0.443733-0.4608a11.093333 11.093333 0 0 1 0.4608-0.443733l84.872534-84.8896 111.786666-111.786667a17.0496 17.0496 0 0 1 1.4336-1.28c34.065067-27.170133 88.541867-46.5408 154.589867 15.394133l108.7488 108.765867c53.384533 57.275733 51.8656 118.186667-3.9936 176.605867L373.896533 932.8128a17.015467 17.015467 0 0 1-12.066133 5.000533z m-163.618133-34.133333H344.746667v-51.2h-68.266667a17.066667 17.066667 0 0 1-17.066667-17.066667v-68.266666h-68.266666a17.066667 17.066667 0 0 1-17.066667-17.066667v-68.266667H122.897067v146.551467l75.3152 75.3152z m-75.3152 0h27.050666l-27.050666-27.050667v27.050667z m170.6496-85.333333h68.266666a17.066667 17.066667 0 0 1 17.066667 17.066666v44.151467L679.0144 579.413333 617.813333 518.212267 373.879467 762.146133a17.0496 17.0496 0 1 1-24.132267-24.132266L593.681067 494.08 532.48 432.878933 288.546133 676.8128a17.0496 17.0496 0 1 1-24.132266-24.132267L508.347733 408.746667l-61.184-61.184L147.029333 647.68H191.146667a17.066667 17.066667 0 0 1 17.066666 17.066667v68.266666h68.266667a17.066667 17.066667 0 0 1 17.066667 17.066667v68.266667z m336.3328-336.3328l73.2672 73.2672 61.201066-61.184L532.48 262.212267l-61.184 61.201066 158.583467 158.600534zM556.612267 238.08L788.48 469.947733l80.0768-80.093866c42.8032-44.765867 44.100267-85.845333 3.857067-129.041067l-107.946667-107.946667c-51.4048-48.1792-86.6304-31.266133-108.834133-13.806933l-99.0208 99.0208z" p-id="3806"></path></svg>