<?xml version="1.0" standalone="no"?><!DOCTYPE svg PUBLIC "-//W3C//DTD SVG 1.1//EN" "http://www.w3.org/Graphics/SVG/1.1/DTD/svg11.dtd"><svg t="1615390427718" class="icon" viewBox="0 0 1024 1024" version="1.1" xmlns="http://www.w3.org/2000/svg" p-id="2231" xmlns:xlink="http://www.w3.org/1999/xlink" width="200" height="200"><defs><style type="text/css"></style></defs><path d="M737.2 461.6c-6.7 0-13.1-2.7-17.8-7.4L569.8 304.6c-4.8-4.7-7.4-11.2-7.4-17.9 0-6.7 2.7-13.1 7.5-17.8 15.2-14.9 30.6-31 47.3-49.4 10.3-11.4 20.8-23.2 32-36.3 4.6-5.3 11.1-8.5 18.1-8.8s13.8 2.4 18.8 7.4L842.2 338c5 5 7.6 11.8 7.4 18.8-0.3 7-3.4 13.6-8.8 18.1-13.1 11.2-24.9 21.7-36.3 31.9-18.4 16.7-34.5 32.1-49.4 47.3-4.7 4.8-11.1 7.5-17.8 7.5h-0.1zM618.7 282.3l127 126c10.4-10.1 21.5-20.5 33.5-31.4 5.5-5 11-10 16.8-15L665.2 232.1c-5.1 5.8-10.1 11.3-15.1 16.8-10.9 11.9-21.3 23-31.4 33.4z m169 105.9z" fill="#FF859F" p-id="2232"></path><path d="M261.1 962.2c-13.9 0-27.4-5.4-37.6-15.6L77.4 800.5c-14.1-14.1-19.1-34.7-13.1-53.7l18-56.8c25.4-80.3 61-141.2 112-191.7 47.4-46.9 109.7-86 196.1-122.9 62.1-26.5 110-57.1 138.7-75.4l1-0.6c13.9-8.9 27.3-19.3 40.9-31.9 7.8-8.1 15.8-16.8 23.9-25.7 7.8-8.6 21.5-24.2 31.9-36.2 3-3.8 15.2-19.5 20.4-26.1 33.7-43.3 39.7-51.4 40.8-52.9 0.3-0.4 0.5-0.8 0.8-1.2 2.6-3.4 11.6-15 16.9-20.2 27.8-27.8 64.7-43.2 104-43.3h0.5c39.1 0 75.9 15.1 103.7 42.5l0.3 0.3c0.9 0.9 1.7 1.7 2.5 2.6 0.9 0.8 1.8 1.7 2.6 2.5l0.3 0.3c27.6 28 42.7 65 42.5 104.2-0.1 39.3-15.5 76.2-43.3 104-5.2 5.2-16.8 14.2-20.2 16.9l-1.2 0.9c-1.5 1-9.6 7-52.8 40.7-6.6 5.1-56.6 47.1-62.3 52.3-8.9 8.1-17.6 16.1-25.7 23.9-12.6 13.6-23.1 27-31.9 40.9l-0.7 1.1c-19.5 30.5-48.9 76.6-75.3 138.6-36.9 86.4-75.9 148.7-122.9 196.1-50.5 51-111.4 86.6-191.7 112l-56.8 18c-5.4 1.7-10.8 2.5-16.2 2.5z m468-806.7c-1.7 2.4-7.6 10.4-42.2 54.8-5.4 7-18.8 24-20.9 26.8-0.3 0.3-0.5 0.6-0.8 1-5.2 5.9-22.8 26.2-33 37.5-8.6 9.5-17.1 18.6-25.3 27.2-0.3 0.4-0.7 0.7-1 1-16.1 14.9-32 27.4-48.6 38l-1 0.6c-30 19.1-80.1 51.2-146 79.3C250 490 174.1 566.9 130.3 705.1l-18 56.8c-0.3 1-0.1 2.2 0.7 2.9L259.1 911c0.8 0.8 1.9 1 2.9 0.7l56.8-18C457.2 849.9 534 774 602.3 613.8c28.1-65.8 60.1-116 79.2-145.9l0.7-1.1c10.6-16.6 23.1-32.5 38-48.6 0.3-0.4 0.7-0.7 1-1 8.6-8.2 17.8-16.8 27.2-25.4 6.8-6.2 57.4-48.6 65.2-54.7 44.3-34.6 52.3-40.5 54.8-42.2 5.7-4.4 12.9-10.3 14.8-12.2 18.3-18.3 28.5-42.7 28.5-68.6 0.1-25.8-9.8-50.2-27.9-68.6-0.7-0.7-1.4-1.3-2.1-1.9l-1.5-1.5c-0.6-0.7-1.3-1.4-1.9-2-18.3-18-42.6-27.9-68.3-27.9h-0.3c-25.9 0.1-50.3 10.2-68.6 28.5-1.8 2-7.6 9.1-12 14.8z" fill="#4867C8" p-id="2233"></path></svg>