<?xml version="1.0" standalone="no"?><!DOCTYPE svg PUBLIC "-//W3C//DTD SVG 1.1//EN" "http://www.w3.org/Graphics/SVG/1.1/DTD/svg11.dtd"><svg t="1615394464250" class="icon" viewBox="0 0 1024 1024" version="1.1" xmlns="http://www.w3.org/2000/svg" p-id="2149" xmlns:xlink="http://www.w3.org/1999/xlink" width="200" height="200"><defs><style type="text/css"></style></defs><path d="M512 516m-320 0a320 320 0 1 0 640 0 320 320 0 1 0-640 0Z" fill="#4988FD" p-id="2150"></path><path d="M512 836C335.552 836 192 692.45 192 516 192 339.552 335.552 196 512 196c176.45 0 320 143.552 320 320 0 176.45-143.55 320-320 320z m0-580C368.636 256 252 372.636 252 516c0 143.366 116.636 260 260 260 143.366 0 260-116.634 260-260 0-143.364-116.634-260-260-260z" fill="#4988FD" p-id="2151"></path><path d="M512 636c-16.568 0-30-13.432-30-30v-180c0-16.568 13.432-30 30-30s30 13.432 30 30v180c0 16.568-13.432 30-30 30zM392 588c-16.568 0-30-13.432-30-30v-80c0-16.568 13.432-30 30-30s30 13.432 30 30v80c0 16.568-13.432 30-30 30zM632 588c-16.568 0-30-13.432-30-30v-80c0-16.568 13.432-30 30-30s30 13.432 30 30v80c0 16.568-13.432 30-30 30z" fill="#DFECFD" p-id="2152"></path></svg>